<?xml version="1.0" encoding="UTF-8"?>
<svg version="1.1" viewBox="0 0 1064 916" width="266" height="229" xmlns="http://www.w3.org/2000/svg">
<path transform="translate(497,4)" d="m0 0h72l10 2 8 6 1 6-3 4h-2v2h-2l-2 5-2 8-1 19 1 14 10 5 8 13 4 6 2 31 169 1v-33l2-6 10-7 21-12 6-2h43l8 3 17 11 7 7 2 8 1 28 1 2 10 3v109l-6 3-4 1-1 2-1 49v278l11 1 46 8 15 4 3 2 1 4 1 35 1 2 68 14 23 5 1 2v32l-1 7-5 4-25 11-29 12-25 11-27 11-21 9-25 11-34 14-74 32-42 18-43 18-25 11-37 15-49 21-36 15-22 9-7-1-20-8-128-52-77-32-49-20-85-35-75-31-43-18-31-13-10-5-1-1-1-24v-15l7-3 81-18 3-1 1-8 1-19 2-10 7-3 48-10 22-4v-336l-15-2-1-10v-101l1-1 14-1 1-3 1-36 5-6 21-13 7-1h35l13 1 10 5 12 10 2 4 1 39h176l1-32 4-7 7-12 3-2 8-1 1-20v-14l-2-12-10-7v-6l8-7 2-1zm-211 236-1 127v124l1 66 207-40 37-7 13 1 156 27 60 10 11 1 1-179v-129l-33-1h-137l-2 7-1 53-1 17-5 5-12 13-15 15-8 10-6 9-4 10-2 7-4 5v15l3 5 2 1v58l-4 6-4 3h-10l-5-3-4-5v-60l4-4 1-5-2-10-3-6-2-13-8-11-8-10-9-10-24-24-2-6-1-15-1-57z" fill="#A57653"/>
<path transform="translate(630,532)" d="m0 0h7l2 3v8l-2 4-12 6-26 8-21 6-20 6-7 2-11 3-18 6-17 5-14 4-29 9-34 10-83 26-24 7-20 7-3 1v2l-10 4-7 2-5 1v4l11 4 13 3 15 5 16 5 24 8 38 11 34 10 14 4 7 3 21 6 19 6 14 4 17 5 8 3 8 2v-23l1-4 16-6 21-7h7v-2l35-11 17-5 35-12 37-12 27-9 17-6 76-26 17-4 12-4 1-2 31-11 40-13 5-2h6v-2l8-3h8l8 3 2 5 1 35 1 2 68 14 23 5 1 2v32l-1 7-5 4-25 11-29 12-25 11-27 11-21 9-25 11-34 14-74 32-42 18-43 18-25 11-37 15-49 21-36 15-22 9-7-1-20-8-128-52-77-32-49-20-85-35-75-31-43-18-31-13-10-5-1-1-1-24v-15l7-3 81-18 3-1 2-14 7 1 29 8 26 8 11 3 45 14 16 5 10 3 10 2h2l2-17 4-3 22-6 17-5 16-4 26-7 23-7 49-14 45-14 21-6 52-16 35-11 30-10 20-6z" fill="#D8A676"/>
<path transform="translate(182,253)" d="m0 0 6 4 8 6 4 4v2l4 2 9 5 6 5v2l4 2 4 7 4 8 2 5 7 14 1 5-1 2v7l-1 5v22l-1 3v8l-1 9v179l1 3 18-2 26-4h3v-65h1l1 65 97-19 98-19 48-9 13 1 156 27 60 10 11 2v-179h1l2 21v9l-1 3v82l2 13 2 28-3 12-1 3 1 2-2 5 12 2 4 1-1-11v-39l1-29v-105l1-17 3-7 8-10 6-8 16-21 7-11h2l1 172v93l5 2 28 5 13 3 8 1v-42h1v43l11 1 46 8 4 2-11 3v2l-9 2-38 13-20 7-12 4h-3l-1 3-11 3-9 3-11 3-45 15-32 11-7 3-9 3-65 21-41 14-21 6-19 6h-3v2l-9 2-16 5-17 6h-2l-1 27-8-1-18-6-21-6-13-4-22-7-11-3-9-3-19-6-63-18-28-10-8-2-26-8-11-3-3-2 1-4 6-3 16-4v-2l8-4 22-7 39-12 51-16 30-9 31-9 12-4 17-5 29-9 5-2 9-2 7-2 36-11 21-6 15-5 5-3h2l1-4v-8l-1-2h-7l-58 18-30 10-52 16-24 7-20 6-42 13-15 4-21 6-37 11-22 6-13 3-11 3-21 6-3 2-3 17-3 1-9-2-10-3-19-6-29-9-17-5-16-5-35-10-18-5v-13l2-10 7-3 48-10 22-4v-205z" fill="#D9A776"/>
<path transform="translate(809,66)" d="m0 0h43l8 3 17 11 7 7 2 8 1 28 1 2 10 3v109l-6 3-4 1-1 2-1 49-1 277h-8l-24-5-21-4-2-2v-265l-4 4-4 7-14 18-6 8-10 13-3 7-1 18v105l-1 29v49l-9-1-7-2 1-6-1-2 3-9 1-7-2-29-2-10v-82l1-9-1-18v-135h-170l-1 6-1 53-1 17-5 5-12 13-15 15-8 10-6 9-4 10-2 7-4 5v15l2 4 3 2v58l-4 6-5 4h-10l-5-3-5-6v-60l4-2 1-7-2-10-3-6-2-13-8-11-8-10-5-6v-3l7-2 19-1h27l6-1 3-6-52-1-8-1-10-9-2-4 13-1 57-1 1-14v-201l1-3 22-1 7-3 1-6-1-4v-4l1-2-4-2-2-3 5 1 6 9 7 11 2 31 169 1v-33l2-6 10-7 21-12z" fill="#4D392E"/>
<path transform="translate(630,532)" d="m0 0h7l2 3v8l-2 4-12 6-26 8-21 6-20 6-7 2-11 3-18 6-17 5-14 4-29 9-34 10-83 26-24 7-20 7-3 1v2l-10 4-7 2-5 1v4l11 4 13 3 15 5 16 5 24 8 38 11 34 10 14 4 7 3 21 6 19 6 14 4 17 5 8 3 8 2v-23l1-4 16-6 21-7h7v-2l35-11 17-5 35-12 37-12 27-9 17-6 76-26 17-4 12-4 1-2 31-11 40-13 5-2h6v-2l8-3h8l8 3 2 5v37l-10 4-13 5-9 2v2l9 1 9 4 13 5 2 2-10 5-23 9-9 4-12 4-11 5-12 4-6 3-23 8-23 9-39 15-33 13-21 8-9 4-14 5-8 3-13 5-10 4-22 8-9 4-12 4-12 5-13 5-12 4-12 5-15 5-8 3-17 7-9 3-8 3-9-1-31-9-53-17-16-3-15-5-5-2-8-2-8-3-15-5-17-5-37-12-30-10-35-11-41-14-30-10-19-7-10-3-12-5-24-9-12-6 1-4 4-2h4v-2l5-2 8-1 3-2 15-2 6 1 10 4h8l-9-4-10-3-15-5-34-11-6-4-2-4 3-18 7 1 29 8 26 8 11 3 45 14 16 5 10 3 10 2h2l2-17 4-3 22-6 17-5 16-4 26-7 23-7 49-14 45-14 21-6 52-16 35-11 30-10 20-6z" fill="#4D392E"/>
<path transform="translate(782,239)" d="m0 0h103l2 1-1 52-1 277h-8l-24-5-21-4-2-2v-265l-4 4-4 7-14 18-6 8-10 13-3 7-1 18v105l-1 29v49l-9-1-7-2 1-6-1-2 3-9 1-7-2-29-2-10v-82l1-9-1-18-1-136z" fill="#4D392E"/>
<path transform="translate(921,639)" d="m0 0h13l13 4 6 3 10 4-3 3-35 14-16 6-11 5-12 4-6 3-23 8-23 9-39 15-33 13-21 8-9 4-14 5-8 3-13 5-10 4-22 8-9 4-12 4-12 5-13 5-12 4-12 5-15 5-8 3-17 7-9 3-8 3-9-1-14-4v-2l-9-2-21-7-14-5-10-3-12-4-10-3-10-4-35-12-22-7-31-10-41-14-39-13-25-9-16-5-26-9-11-4-15-5-7-3-10-3-8-3v-2l-7-1-1-4 12-2 19 1 14 1 29 1 20 6 33 11 29 9 27 8 31 10 26 8 28 9 26 8 25 7 38 11 29 9 11 3h6l22-9 20-7 28-10 17-6 39-14 29-10 36-13 55-19 16-6 29-10 31-11 36-13 21-8z" fill="#191A1C"/>
<path transform="translate(1052,645)" d="m0 0h3l1 2v32l-1 7-5 4-25 11-29 12-25 11-27 11-21 9-25 11-34 14-74 32-42 18-43 18-25 11-37 15-49 21-36 15-22 9h-3v-37l1-13 2-3 11-4 6-3h5v-2l14-5 1-1h5v-2l14-5 9-4 8-3 11-5 9-3 12-5 11-5 14-5 3-2h5v-2l16-6 11-5 7-1v-2l17-6 114-47 27-11 13-5 9-4 36-15 20-8 13-5 5-1v-2l6-2h4v-2l6-2h4v-2l18-7 17-6 22-9z" fill="#4D392E"/>
<path transform="translate(11,654)" d="m0 0 17 5 22 8 17 6 8 3 11 4 13 5 11 4 15 6 22 8 13 5 12 5 14 6 8 3 9 4 12 5 36 14 16 6 9 4 15 6 15 5 5 3 15 5 5 3 12 4 8 4 15 5 2 2 7 2 15 6 13 5 15 6 12 5 19 7 11 5 16 6 39 15 17 7 4 1-1 1-1 13-1 37-10-3-36-15-44-18-62-25-77-32-49-20-85-35-75-31-43-18-31-13-10-5-1-1v-37z" fill="#A57653"/>
<path transform="translate(215,67)" d="m0 0h35l13 1 10 5 12 10 2 4 1 39h168l-2 30-3 22-2 5-2 1-229 1-35 1-6 18-8 22-2 5-2-2v-101l1-1 14-1 1-3 1-36 5-6 21-13z" fill="#DAA877"/>
<path transform="translate(809,66)" d="m0 0h43l8 3 17 11 7 7 2 8 1 28 1 2 10 3v5l-4 2-16 44h-2l-1 5h-226l-6-9-1-4h-2l-3-9h-2l-4-9-6-12v-2l-3-1-3-12h151v-33l2-6 10-7 21-12z" fill="#D9A776"/>
<path transform="translate(630,532)" d="m0 0h7l2 3v8l-2 4-12 6-26 8-21 6-20 6-7 2-11 3-18 6-17 5-14 4-29 9-34 10-83 26-24 7-20 7-3 1v2l-10 4-7 2-5 1v4l11 4 13 3 15 5 16 5 24 8 38 11 34 10 14 4 7 3 21 6 19 6 14 4 17 5 8 3 8 2v-23l1-4 16-6 21-7h7l-3 2-8 3-18 6-12 5-1 27-1 4-1 20-3 1-7-3-15-3-5-2-8-2-12-4-13-4-9-3-11-4-17-5-18-6-28-9-27-8-23-7-7-3-17-5-25-8-26-7-15-5-21-6-20-6-23-1-20-3h-27l-16 3-9 2 4 3 36 13 43 15 63 21 41 14 36 12 101 33v1l-9-1-15-5-5-2-8-2-8-3-15-5-17-5-37-12-30-10-35-11-41-14-30-10-19-7-10-3-12-5-24-9-12-6 1-4 4-2h4v-2l5-2 8-1 3-2 15-2 6 1 10 4h8l-9-4-10-3-15-5-34-11-6-4-2-4 3-18 7 1 29 8 26 8 11 3 45 14 16 5 10 3 10 2h2l2-17 4-3 22-6 17-5 16-4 26-7 23-7 49-14 45-14 21-6 52-16 35-11 30-10 20-6z" fill="#8B6148"/>
<path transform="translate(202,238)" d="m0 0 73 1 10 1 1 1v126l-1 189-14 3-29 4-5-1-1-3v-184l1-5v-7l1-8v-21l1-2v-6l1-3-4-11-6-10-1-5-3-5-4-7-9-8-10-6-5-5-9-8-4-2-3-3-1-5v-8z" fill="#4D392E"/>
<path transform="translate(456,126)" d="m0 0h7l2 6 1 53v50l-1 5-180 1-15-1-68-1-23 2-13-2v-8l7-19 6-17 3-9 1-1 42-1 224-1 4-27 2-27z" fill="#8B6148"/>
<path transform="translate(497,4)" d="m0 0h72l10 2 8 6 1 6-3 4-10-1h-40l-8 1-40 1 5 5h3 8l10 2 16 2 7 3 1 8 5 1 6 13-2 4-9 2-11 1-37 1v7l63 2 2 1 1 3v18l-1 1-45 1-1 25-1 31v121l-1 27v11l-3 3-28 2h-8l-2-6-1-15v-57l1-5v-50l-1-53-1-6 1-6 1-26 4-7 7-12 3-2 8-1 1-20v-14l-2-12-10-7v-6l8-7 2-1z" fill="#DAA877"/>
<path transform="translate(617,126)" d="m0 0 3 1 3 11 3 3 8 15 1 6h2l3 4v5h2l6 11 1 1h207l19 1 1-5h2l1-6 14-38 2-2h3v104l-6 3-5 1-2-1h-103l-12 1h-32l-59-1-2-5-8-10-10-17-8-16-6-10-10-17-12-22-5-11z" fill="#8B6148"/>
<path transform="translate(11,676)" d="m0 0 10 2 17 6 11 4 4 2 5 1 13 5 12 5 30 12 12 5 13 6 13 5 12 5 6 2 12 6 9 3 11 5 25 10 16 7 16 6 13 5 18 8 17 6 8 4 13 5 30 12 23 9 14 6 16 6 28 11 62 25 13 5 18 8 1-6h1v31l-10-3-36-15-44-18-62-25-77-32-49-20-85-35-75-31-43-18-31-13-10-5-1-1v-15z" fill="#8C6148"/>
<path transform="translate(944,581)" d="m0 0h8l8 3 2 5v9h-3l-1 2-7 1-14 6-20 8-9 3-10 4-16 6-26 9-13 5-17 6-25 9-38 14-49 18-36 13-23 8-34 12-29 10-22 7-13 4-6 1v-3l3-7 4-4h2v-2l5-2-3-1-5 1-5 5-3 8-9 9-2 1v-28l9-4 22-8 8-3h3v-3l35-11 17-5 35-12 37-12 27-9 17-6 76-26 17-4 12-4 1-2 31-11 40-13 5-2h6v-2z" fill="#6A4536"/>
<path transform="translate(828,293)" d="m0 0h2l1 172v93l5 2 28 5 13 3 8 1v-42h1v44h-7l-13-3-13-2-7-2-12-1-11-4-27-4-16-2-10-3v-180h1l2 21v9l-1 3v82l2 13 2 28-3 12-1 3 1 2-2 5 12 2 4 1-1-11v-39l1-29v-105l1-17 3-7 8-10 6-8 16-21z" fill="#BD8A61"/>
<path transform="translate(139,668)" d="m0 0h27l20 3 23 1 23 7 18 5 22 7 25 7 23 7 19 6 8 3 33 10 41 13 27 9 13 4 11 3 9 3 7 3 10 3 16 5 8 3 10 3-3 1h-8l-39-12-32-9-23-7-37-11-15-5-51-16-20-6-25-8-17-5-43-14-10-3-29-1-27-2-18 1 1 3 7 2v2l7 1 6 3 7 2 9 3 11 4 19 7 45 15 14 5 9 3 35 12 36 12 31 10 57 19 13 5 9 3 10 3 54 18-4 1-66-21-50-16-70-23-36-12-47-16-63-21-53-19-12-5v-3l17-4z" fill="#4E392E"/>
<path transform="translate(497,4)" d="m0 0h72l10 2 8 6 1 6-3 4-10-1h-40l-8 1-40 1 5 5h3 8l10 2 16 2 7 3 1 8 5 1 6 13-2 4-9 2-11 1-37 1v7l29 1v1h-28l-2-1v-35l-2-12-10-7v-6l8-7 2-1z" fill="#A87955"/>
<path transform="translate(809,66)" d="m0 0h43l8 3 8 5v1h-5l-1 9-1 1-31 1-3 20-3 3-4 2-16 1-33 1v5h-1v-25l2-6 10-7 21-12z" fill="#DAA877"/>
<path transform="translate(535,20)" d="m0 0h40l7 1 1 3h-2l-2 5-2 8-1 19 1 14 2 3-4 1-83-3v-3l16-3 2-1 27-2 9-2 1-3-5-11v-2l-5-1-2-8-12-3-15-2-8-1h-5-3l-5-4v-2l11-1 29-1z" fill="#4D392E"/>
<path transform="translate(629,534)" d="m0 0h5l3 5-1 7-10 4-85 26-54 17-36 11-10 1-4-6-2-1v-2l12-5 18-6 31-9 48-15 50-16z" fill="#4D392E"/>
<path transform="translate(433,608)" d="m0 0h5l-3 2-30 9-60 19-24 7-20 7-3 1v2l-10 4-7 2-5 1v4l11 4 13 3 15 5 16 5 24 8 38 11 34 10 14 4 7 3 21 6 19 6 14 4 17 5 8 3 8 2v-23l1-4 16-6 21-7h7l-3 2-8 3-18 6-12 5-1 27-4 4-13-5-32-9-14-4-12-3-26-8-21-7-14-4-62-19-29-9-25-8-13-4-9-4-1-3 10-5 19-7 13-6 37-12 26-8 37-11z" fill="#BE8B62"/>
<path transform="translate(182,253)" d="m0 0 6 4 8 6 4 4v2l4 2 9 5 6 5v2l4 2 4 7 4 8 2 5 7 14 1 5-1 2v7l-1 5v22l-1 3v8l-1 9v179l1 3 18-2 26-4h3v-65h1l1 67-8 3-37 6h-10l-1-3-1-91v-28l1-107v-31l-11-12-4-4v-2h-2l-7-8v-2h-2v-2h-2l-4-4-9-2-7-1-1-1z" fill="#B1805A"/>
<path transform="translate(456,126)" d="m0 0h7l2 6 1 53v50l-1 5h-172v-1h167v-46l1-5-1-1-10-1-3 1-13 1h-163l-46-1-37 1-4 2-5 15-4 13-1 4-4 17h-4v-8l7-19 6-17 3-9 1-1 42-1 224-1 4-27 2-27z" fill="#A67754"/>
<path transform="translate(832,87)" d="m0 0h52l2 8v31h-38l-18-1v-12l1-9v-16z" fill="#4D392E"/>
<path transform="translate(553,74)" d="m0 0h20l4 4 5 10 1 5-2 3-4 1-22 1-4 1h-40l-1 1v72l-1 85v37l-1 23-10 1h-13l7 8 5 4 8 1 50 1 2 1-1 4-2 3-12 1h-27l-13 1-7 1-1 2-26-26v-1l7-1 28-2 2-2v-18l1-22v-121l1-39 1-15 1-1 45-1v-18z" fill="#BE8B62"/>
<path transform="translate(236,88)" d="m0 0h50l1 1v37h-31l-20-1-2-1v-13l1-21z" fill="#4D392E"/>
<path transform="translate(630,532)" d="m0 0h7l2 3v8l-2 4-12 6-26 8-21 6-20 6-7 2-11 3-18 6-17 5-14 4-4-1 42-13 25-8 78-24 4-1v-7l-2-4-8 1-91 29-49 15-34 10-11 4-25 7-36 11-56 17-40 11-17 5-3 2-2 16-1 2h-9l-9-3-75-23-8-2-20-6-12-3-17-4-9-1v-6l7 1 29 8 26 8 11 3 45 14 16 5 10 3 10 2h2l2-17 4-3 22-6 17-5 16-4 26-7 23-7 49-14 45-14 21-6 52-16 35-11 30-10 20-6z" fill="#AF7F59"/>
<path transform="translate(11,654)" d="m0 0 17 5 22 8 17 6 8 3 11 4 13 5 11 4 15 6 22 8 13 5 12 5 14 6 8 3 9 4 12 5 36 14 16 6 9 4 15 6 15 5 5 3 15 5 5 3 12 4 8 4 15 5 2 2 7 2 15 6 13 5 15 6 12 5 19 7 11 5 16 6 39 15 7 3-2 1-15-5-21-8-12-5-20-7-20-8-26-10-36-14-24-9-33-13-14-5-12-5-21-8-16-6-14-5-9-4-14-6-16-6-6-3-35-14-23-9-9-3-7-3-6-3-12-5-13-5-12-5-15-5-7-3-27-9-10-2h-4l-1 2v-7z" fill="#BE8B62"/>
<path transform="translate(524,392)" d="m0 0h13l2 8 1 53-1 16-3 5h-4v2l-6 1-1 2-7-8v-60l4-2 1-7-1-9z" fill="#DAA877"/>
<path transform="translate(806,324)" d="m0 0v3l-1 2h-2l-2 5-8 12-1 204-1 3h-11l-10-3v-180h1l2 21v9l-1 3v82l2 13 2 28-3 12-1 3 1 2-2 5 12 2 4 1-1-11v-39l1-29v-105l1-17 3-7 8-10 6-8z" fill="#A57653"/>
<path transform="translate(895,133)" d="m0 0h3v104l-4 1-4-8-12-36-2-7 1-8 14-39 3-6z" fill="#4D392E"/>
<path transform="translate(101,623)" d="m0 0h1l2 14 5 3 40 13 40 14 4 2v2h-13l-14-2h-27l-16 3-9 2 4 3 36 13 43 15 63 21 41 14 36 12 101 33v1l-9-1-15-5-5-2-8-2-8-3-15-5-17-5-37-12-30-10-35-11-41-14-30-10-19-7-10-3-12-5-24-9-12-6 1-4 4-2h4v-2l5-2 8-1 3-2 15-2 6 1 10 4h8l-9-4-10-3-15-5-34-11-6-4-2-4z" fill="#9B6E4F"/>
<path transform="translate(863,75)" d="m0 0h6l9 6 5 6-51 1v19l-2 18h18l38 1 1-3v4h-59l-57-2-1-1 1-11 8-1 28-1 13-1 6-2 3-22 1-1 31-1z" fill="#BE8B62"/>
<path transform="translate(270,661)" d="m0 0 3 1-4 4 10 4 27 8 9 3 17 5 22 7 17 5 9 3 17 5 23 7 44 14 25 7 17 5 25 8 4 1 1-30 16-6 21-7h7l-3 2-8 3-18 6-12 5-1 27-4 4-13-5-32-9-14-4-12-3-26-8-21-7-14-4-62-19-29-9-25-8-13-4-9-4-1-3z" fill="#A57653"/>
<path transform="translate(828,293)" d="m0 0h2l1 172v93l5 2 28 5 13 3 8 1v-42h1v44h-7l-13-3-13-2-7-2-12-1-6-2-2-3v-122l1-90 1-45-4-1z" fill="#A67754"/>
<path transform="translate(452,186)" d="m0 0h8l2 4-1 9v32l-1 8h-21l-2-2v-10l12-38z" fill="#4D392E"/>
<path transform="translate(494,64)" d="m0 0h16l-2 2-10 2h-6v3h31l53 2 6-1 2 4 3 2 1 6h-2l2 5-1 5-4 3-4 1h-22v204l-1 14-1 1h-47v-1h43v-7l2-15 1-3v-92l1-100 1-2 21-1 4-1 1-3-4-10-3-6-2-1h-21l-61-2-2-1v-7z" fill="#8B6148"/>
<path transform="translate(234,309)" d="m0 0 4 5 3 10-1 2v7l-1 5v22l-1 3v8l-1 9v179l1 3 18-2 26-4h3v-65h1l1 67-10 2-26 4-15 1-2-1z" fill="#8B6148"/>
<path transform="translate(475,317)" d="m0 0h23v1h-13l7 8 5 4 8 1 50 1 2 1-1 4-2 3-12 1h-27l-13 1-7 1-1 2-26-26v-1z" fill="#8D6249"/>
<path transform="translate(497,4)" d="m0 0h36l-1 15-1 1-30 1-14 1-5 1-6-4v-6l8-7 2-1z" fill="#DAA877"/>
<path transform="translate(488,33)" d="m0 0h22l2 2 2 7 3 3 2 9-1 5-7 3-23 2z" fill="#DAA877"/>
<path transform="translate(457,147)" d="m0 0 3 1 1 7 1 5 2 21v4h2v50l-1 5h-172v-1h167v-46l1-5-1-1-13-1 4-4 4-24 1-10z" fill="#A87955"/>
<path transform="translate(630,532)" d="m0 0h7l2 3v8l-2 4-12 6-26 8-21 6-20 6-7 2-11 3-18 6-17 5-14 4-4-1 42-13 25-8 78-24 4-1v-7l-2-4-8 1-91 29-49 15-34 10-7 2 1-3 20-6 17-5 52-16 35-11 30-10 20-6z" fill="#A17352"/>
<path transform="translate(263,69)" d="m0 0 5 1 9 6 8 7 2 6h-49l-2-1-2 36 53 2v-11h1l1 12h-56l-7-2-1-4-1-5 1-2 6-1v-10l2-16 1-2 7-1h19l1-2v-9z" fill="#A77855"/>
<path transform="translate(617,126)" d="m0 0 3 1 3 11 3 3 8 15 1 6h2l3 4v5h2l6 11 1 1h207l19 1-1 2-4 1h-210l-13-2-8-13-14-25-7-15z" fill="#BE8B62"/>
<path transform="translate(456,126)" d="m0 0h7l2 6v53l-2-4-1-14-1-11-1-3v-5h-3l-4 30-2 5-3 2-58 1h-79l-76-1v-1l214-1 4-27 2-27z" fill="#BE8B62"/>
<path transform="translate(539,404)" d="m0 0h2l3 6 3 2v58l-4 6-5 4h-10l-2-1v-2l6-1v-2l5-2 1-3 1-18z" fill="#4E3A2E"/>
<path transform="translate(225,592)" d="m0 0h11l16 2 4 5-3 5-9 3h-18l-13-3-2-1v-6l4-3z" fill="#B3825C"/>
<path transform="translate(512,35)" d="m0 0 10 1 5 2h7l1 2v22l-23 1-1 1-22 1v7l29 1v1h-28l-2-1v-9l1-1 22-2 7-3-1-10-1-5-3-1z" fill="#BC8961"/>
<path transform="translate(101,623)" d="m0 0h1l2 14 5 3 40 13 40 14 4 2v2h-13l-14-2h-27l-12 2h-7v-3l5-2 8-1 3-2 15-2 6 1 10 4h8l-9-4-10-3-15-5-34-11-6-4-2-4z" fill="#B1805A"/>
<path transform="translate(790,345)" d="m0 0 1 4-1 161v40l-1 2h-6l4-1-1-11v-39l1-29v-105l1-17z" fill="#8B6148"/>
<path transform="translate(863,75)" d="m0 0h6l9 6 5 6-51 1v19l-2 18h18l38 1 1-3v4h-59l-6-2-1-7 3-5 4-4 1-23 1-1 31-1z" fill="#A57654"/>
<path transform="translate(182,253)" d="m0 0 6 4 8 6 4 4v2l4 2 9 5 6 5v2l4 2 4 7 4 8-3 3-12-12v-2h-2l-7-8v-2h-2v-2h-2l-4-4-9-2-7-1-1-1z" fill="#B3825C"/>
<path transform="translate(110,672)" d="m0 0 2 1-1 3 5 2 14 6 20 7 13 5 23 8 20 7 72 24 32 10 20 7-4 1-15-5-29-9-37-12-18-6-16-5-8-3-12-4-8-3-42-14-7-3h-2v-2l-6-1-7-3-6-3-4-4z" fill="#BE8B62"/>
<path transform="translate(553,74)" d="m0 0h20l4 4 5 10 1 5-2 3-4 1h-21l2-3h2l2-15v-2h-6z" fill="#A67754"/>
<path transform="translate(494,64)" d="m0 0h16l-2 2-10 2h-6v3h31l53 2 6-1 2 4 3 2 1 6h-2l2 5-1 5-4 3-4 1h-22l-1 4-1-3 1-2 21-1 4-1 1-3-4-10-3-6-2-1h-21l-61-2-2-1v-7z" fill="#8B6148"/>
<path transform="translate(550,660)" d="m0 0 16 1 8 4-1 3-3 2-7 2h-16l-15-3-3-2 1-3 9-3z" fill="#4C392E"/>
<path transform="translate(433,608)" d="m0 0h5l-3 2-30 9-60 19-24 7-20 7-3 1v2l-10 4-9 1-6 1 3-2 16-6 13-6 37-12 26-8 37-11z" fill="#AF7F59"/>
<path transform="translate(770,370)" d="m0 0h1l2 21v9l-1 3v82l2 13 2 28-3 12-1 3 1 2-2 5h-1z" fill="#8B6148"/>
<path transform="translate(291,640)" d="m0 0h9l3 1v2h-3l-2 4-4 1v2l-17 8-9 3-3-3v-5l2-5h4v-2l3-2 17-2z" fill="#4D392E"/>
<path transform="translate(565,11)" d="m0 0h17l5 4-1 5-1 2-10-1h-43l4-3 7-2 4-2h3v-2h11z" fill="#8B6148"/>
<path transform="translate(453,184)" d="m0 0 10 1 1 1v44l-1 9-1 1h-169v-1h167v-46l1-5-1-1-8-1z" fill="#9E7151"/>
<path transform="translate(828,293)" d="m0 0h2l1 172v93l1 2-3-1-1-262-3 2 2-5z" fill="#8B6148"/>
<path transform="translate(524,392)" d="m0 0h13l2 8 1 53-1 16-3 5h-4v2l-6 1-1 2-3-3v-2l12-3 1-1 1-26v-47l-12 2-2-6z" fill="#9D7050"/>
<path transform="translate(818,594)" d="m0 0h16l11 1 5 3-1 3-8 2h-25l-8-2v-4z" fill="#4D392E"/>
<path transform="translate(525,532)" d="m0 0h13l10 2v6l-5 3h-22l-6-4 1-5z" fill="#AF7E59"/>
<path transform="translate(827,285)" d="m0 0h1v6l-13 19-13 16-10 10-4-1 6-9 7-9h2l2-4 20-26z" fill="#8B6148"/>
<path transform="translate(901,674)" d="m0 0 3 1-11 5-8 3-17 6-73 28-33 13-16 6-3-1 60-24 29-11 10-4 30-11z" fill="#4D392E"/>
<path transform="translate(443,590)" d="m0 0 3 1-5 3-25 7-36 11-33 10-12 4h-7l-7 2-4-1 24-7 20-6 25-7 14-4 33-10z" fill="#B2815B"/>
<path transform="translate(847,183)" d="m0 0 28 1-1 2-4 1h-210l-10-1v-1h197z" fill="#A67754"/>
<path transform="translate(232,595)" d="m0 0 15 1 5 3-1 3-6 2h-23l-7-2 1-4 6-2z" fill="#4D392E"/>
<path transform="translate(529,254)" d="m0 0 6 1 3 4v9l-5 3h-7l-4-3-1-8 3-4z" fill="#4D392E"/>
<path transform="translate(265,86)" d="m0 0h15l7 1-1 2h-48l-2-1-2 36 53 2v-11h1l1 12h-56l-1-2v-18l1-1 1-18 1-1z" fill="#976A4D"/>
<path transform="translate(263,69)" d="m0 0 5 1 2 2-4 1-2 5v6l-2 2h-27l-1 20-1 1v19l-7-1-1-4-1-5 1-2 6-1v-10l2-16 1-2 7-1h19l1-2v-9z" fill="#BD8A61"/>
<path transform="translate(536,39)" d="m0 0 1 4 5 1 6 13-2 4-9 2-11 1h-15l1-2 24-1z" fill="#8E6349"/>
<path transform="translate(594,559)" d="m0 0 3 1-9 4-30 9-7 2-11 3-18 6-17 5-14 4-4-1 42-13 25-8 36-11z" fill="#A07252"/>
<path transform="translate(213,712)" d="m0 0 8 1 59 20v2l4 1-3 1-36-12-32-11z" fill="#9C6E4F"/>
<path transform="translate(554,75)" d="m0 0 8 2 1 5-2 10-5 5-5 2h-40l-1 1-1 7h-1v-9l1-1 45-1z" fill="#BE8B62"/>
<path transform="translate(494,64)" d="m0 0h16l-2 2-10 2h-6v3h31l30 1-1 3-61-2-2-1v-7z" fill="#9B6E4F"/>
<path transform="translate(653,769)" d="m0 0 4 1-9 4-12 4-9 4-17 6-15 6-15 5-8 3-17 7-7 1 2-2 40-15 26-10 19-7z" fill="#654938"/>
<path transform="translate(863,75)" d="m0 0h6l9 6 5 6-53-1v-1l31-1z" fill="#BA8860"/>
<path transform="translate(770,370)" d="m0 0h1l2 21v9l-1 3-1 122h-1z" fill="#B7855E"/>
<path transform="translate(944,581)" d="m0 0h2l-1 4-13 4-12 4-38 12-12 4-4-1 19-7 40-13 5-2h6v-2z" fill="#A17352"/>
<path transform="translate(529,144)" d="m0 0 7 1 3 4v6l-3 3-2 1h-6l-4-3v-8l2-3z" fill="#4D392E"/>
<path transform="translate(375,725)" d="m0 0 11 1 16 5 19 6 27 9v2l3 1-7-1-53-17-16-5z" fill="#5E4032"/>
<path transform="translate(200,269)" d="m0 0 4 2 9 5 6 5v2l4 2 4 7 4 8-2 2-14-15-5-7-5-5z" fill="#8A6047"/>
<path transform="translate(328,625)" d="m0 0h3v2l-47 13-17 5-3 2-2 16-1 2h-9v-3l7 2 2-18 4-3 37-11 19-5z" fill="#A67754"/>
<path transform="translate(814,593)" d="m0 0h30l7 3 1 4-3 1v2l-8 2h-22l-10-2-3-2 1-6zm4 1-10 3v4l8 2h25l8-2 1-3-5-3-11-1z" fill="#A97956"/>
<path transform="translate(182,186)" d="m0 0 3 3-4 9-6 20-1 4-4 17h-4v-8l7-19 6-17z" fill="#AA7A56"/>
<path transform="translate(488,30)" d="m0 0 24 1 2 1 19 3 3 4 1 22-2 1-1-22-1-1h-6l-5-2-11-2-1-1-22-1z" fill="#A67754"/>
<path transform="translate(617,126)" d="m0 0 3 1 3 11 3 3 8 15 1 6h2l3 4v5h2l6 11 1 3-3-1-15-26-12-23z" fill="#A47554"/>
<path transform="translate(285,491)" d="m0 0h1l1 67-10 2-26 4h-5l3-1v-2l36-5z" fill="#A47553"/>
<path transform="translate(482,326)" d="m0 0 5 1 7 3 1 3h2l-2 5-4 4-13-13 1-2z" fill="#A87955"/>
<path transform="translate(312,628)" d="m0 0h5l-3 2-26 7-23 7-3 2-2 16-1 2-10-2v-1h9l2-17 4-3 22-6 17-5z" fill="#BE8B62"/>
<path transform="translate(148,661)" d="m0 0 9 1 10 4-4 1-9-1-18 2-13 1v2h-3v-3l5-2 8-1 3-2z" fill="#BD8A61"/>
<path transform="translate(598,699)" d="m0 0 3 1-2 2-9 3-26 9-13 4-8 3-3 1-2 3 1-5 15-6 15-5 17-6z" fill="#4D392E"/>
<path transform="translate(191,643)" d="m0 0 7 1 24 8 21 6 8 4-3 1-11-3-26-8-1-2-19-6z" fill="#B4825C"/>
<path transform="translate(483,22)" d="m0 0h15v1h-11l5 5h3 8l10 2 16 2 7 3-1 4-2-3-19-3-2-1-20-1-5-1-2-5-2-1z" fill="#8B6148"/>
<path transform="translate(842,698)" d="m0 0h3l-1 3-9 1v2l-13 5-13 4h-3v2l-21 8-7 1 4-3 34-13z" fill="#A37553"/>
<path transform="translate(630,532)" d="m0 0h7l2 3v8l-2 4-12 6-26 8-3-1 1-2 35-11 4-1v-12l-6-1z" fill="#A47554"/>
<path transform="translate(523,534)" d="m0 0h20l2 4-4 2h-15l-7-2v-2z" fill="#4D392E"/>
<path transform="translate(507,274)" d="m0 0h2v20l-1 23h-14v-1l9-1 2-2v-18l1-20z" fill="#BC8961"/>
<path transform="translate(829,86)" d="m0 0h48v1l-45 1v19l-2 18h-1v-16l-1-2z" fill="#93684B"/>
<path transform="translate(182,253)" d="m0 0 6 4 8 6 4 4-1 2-8-2-9-2z" fill="#8B6148"/>
<path transform="translate(946,581)" d="m0 0h6l2 2-19 7-25 8-13 4-2 1h-6l3-2 28-9 12-4 13-4z" fill="#4F3A2F"/>
<path transform="translate(101,623)" d="m0 0h1l2 14 5 3 24 8v2l8 2-4 1-30-10-6-4-2-4z" fill="#B2815B"/>
<path transform="translate(116,670)" d="m0 0 7 1v1l-9 2 4 3 36 13 1 3-5-1-25-9-14-7 1-4z" fill="#9D6F50"/>
<path transform="translate(506,571)" d="m0 0 4 1-27 9-31 9-7 2 1-3 20-6 17-5z" fill="#A47654"/>
<path transform="translate(283,696)" d="m0 0 9 2 26 8 11 2 10 3 4 3-1 2-38-12-20-6z" fill="#6A4536"/>
<path transform="translate(311,645)" d="m0 0h8l-3 2-18 6v2l-10 4-9 1-6 1 3-2 16-6 13-6z" fill="#B2815B"/>
<path transform="translate(168,637)" d="m0 0h7l16 5v2l12 3 8 3-3 1-40-12z" fill="#AB7B57"/>
<path transform="translate(384,769)" d="m0 0 8 1 46 15v1l-9-1-15-5-5-2-8-2-8-3-9-3z" fill="#9E7050"/>
<path transform="translate(218,184)" d="m0 0h7l2 2-2 1-41 1-1-3z" fill="#A87955"/>
<path transform="translate(626,533)" d="m0 0h10l1 1v5l-3-4-8 1-38 12-2-1 5-3z" fill="#A27353"/>
<path transform="translate(957,587)" d="m0 0h4v10l-13-2 1-2-3-1v-2z" fill="#4D392E"/>
<path transform="translate(594,559)" d="m0 0 3 1-9 4-30 9-3-1h2v-2l33-10z" fill="#A47654"/>
<path transform="translate(222,594)" d="m0 0h24l7 3 1 4-3 3h-6l6-3-1-3-13-2-15 1-6 2-2 3 1-6z" fill="#996D4E"/>
<path transform="translate(653,769)" d="m0 0 4 1-9 4-12 4-9 4-17 6-3-1 17-7 27-10z" fill="#604636"/>
<path transform="translate(443,590)" d="m0 0 3 1-5 3-25 7-13 4h-3v-2l33-10z" fill="#AF7E59"/>
<path transform="translate(770,370)" d="m0 0h1l2 21v9l-1 3v20h-2z" fill="#AA7B58"/>
<path transform="translate(231,106)" d="m0 0h1l1 20-7-1-1-4-1-5 1-2 6-1z" fill="#BE8B62"/>
<path transform="translate(524,392)" d="m0 0h13v7l-1-2-12 2-2-6z" fill="#A47554"/>
<path transform="translate(538,473)" d="m0 0h7l-5 6-2 1h-10l-2-1v-2l6-1v-2z" fill="#6C4938"/>
<path transform="translate(499,765)" d="m0 0 7 1 5 1 4 1 17 5-3 1h-8l-22-7z" fill="#553C30"/>
<path transform="translate(154,691)" d="m0 0 5 1 26 9-2 2-9-2-11-4-8-3z" fill="#9B6E4F"/>
<path transform="translate(504,356)" d="m0 0 7 1 5 4 5 2-5 4-3 1-9-11z" fill="#8E6349"/>
<path transform="translate(154,665)" d="m0 0 9 1 2 2-26 1-16 2v-2l18-3z" fill="#9A6D4F"/>
<path transform="translate(901,596)" d="m0 0 4 1-10 4-25 8-4-1 19-7z" fill="#A37453"/>
<path transform="translate(573,705)" d="m0 0h7l-3 2-8 3-18 6-12 5-1-2 25-10z" fill="#8B6148"/>
<path transform="translate(395,604)" d="m0 0h5v2l-24 7-13 2 1-2 15-4z" fill="#B6845D"/>
<path transform="translate(342,635)" d="m0 0h2v2h-3v2l-20 6-9 1 2-2z" fill="#AE7D58"/>
<path transform="translate(768,212)" d="m0 0 6 1 1 5-3 3h-5l-1-7z" fill="#45342B"/>
<path transform="translate(229,302)" d="m0 0h2l3 5v52h-1l-1-51-3-3z" fill="#A57653"/>
<path transform="translate(630,532)" d="m0 0h7l2 3v8l-2 4-9 5h-9l3-2 12-4h2v-12l-6-1z" fill="#A97956"/>
<path transform="translate(246,212)" d="m0 0 6 2-1 7-5 1-2-2-1-5z" fill="#4A372D"/>
<path transform="translate(847,183)" d="m0 0 28 1-1 2-4 1-25-1 2-1z" fill="#AB7B57"/>
<path transform="translate(494,64)" d="m0 0h16l-2 2-10 2h-6v3h-3v-6z" fill="#8B6148"/>
<path transform="translate(584,546)" d="m0 0 3 1-5 3-22 7h-6l3-2z" fill="#A57654"/>
<path transform="translate(182,186)" d="m0 0 3 3-4 9-2 8-2 1-4 11-1-3 7-20z" fill="#B2815B"/>
<path transform="translate(423,739)" d="m0 0 7 1 18 6v2l3 1-7-1-18-6v-2z" fill="#5B3F32"/>
<path transform="translate(901,674)" d="m0 0 3 1-11 5-8 3-10 4h-2l1-3z" fill="#644837"/>
<path transform="translate(176,663)" d="m0 0 13 4 4 2v2h-13l-6-1v-1l10-1-8-3z" fill="#A17352"/>
<path transform="translate(842,698)" d="m0 0h3l-1 3-9 1v2l-13 5-2-1 3-3z" fill="#A97A56"/>
<path transform="translate(147,630)" d="m0 0 8 1 16 5-3 2h-6l-5-2-1-2-9-3z" fill="#B4835C"/>
<path transform="translate(818,593)" d="m0 0h26l7 3 1 4-3 1-1-4-3-1-27-2z" fill="#A77855"/>
<path transform="translate(525,532)" d="m0 0h13l8 1v1l-23 1-4 1v2h-3l2-5z" fill="#A77855"/>
<path transform="translate(322,707)" d="m0 0 7 1 10 3 4 3-1 2-19-6z" fill="#5D3F32"/>
<path transform="translate(116,670)" d="m0 0 7 1v1l-9 2 4 3 11 4-1 2-5-1-12-6 1-4z" fill="#A07252"/>
<path transform="translate(636,162)" d="m0 0 4 4v5h2l6 11 1 3-3-1-10-17z" fill="#A97A56"/>
<path transform="translate(263,729)" d="m0 0 8 1 9 3v2l4 1-3 1-18-6z" fill="#9D7050"/>
<path transform="translate(173,664)" d="m0 0 6 1 6 3v1h-19l-1-2 10-1z" fill="#B3815C"/>
<path transform="translate(358,630)" d="m0 0h3v3l-16 5-4-1h3v-2l9-3z" fill="#B1805A"/>
<path transform="translate(280,734)" d="m0 0 6 1 15 5-1 2-10-2-6-2-1-2z" fill="#996C4E"/>
<path transform="translate(514,31)" d="m0 0h9l12 3 1 5-3-3-19-3z" fill="#8B6148"/>
<path transform="translate(913,594)" d="m0 0h3v2l-19 6-2 1h-6l3-2z" fill="#4D392E"/>
<path transform="translate(895,128)" d="m0 0h3v5l-4 2-6 16-1-4 7-18z" fill="#9C6F50"/>
<path transform="translate(571,800)" d="m0 0 3 1-19 8-7 1 2-2z" fill="#5F4535"/>
<path transform="translate(414,779)" d="m0 0 9 1 15 5v1l-9-1-15-5z" fill="#A97A57"/>
<path transform="translate(300,741)" d="m0 0 8 1 11 4v2l-9-2-10-3z" fill="#9C6F4F"/>
<path transform="translate(234,657)" d="m0 0h7l10 5-3 1-11-3-3-1z" fill="#AE7D58"/>
<path transform="translate(944,581)" d="m0 0h2l-1 4-13 4-1-2 5-1v-2z" fill="#92674B"/>
<path transform="translate(488,30)" d="m0 0 19 1v2h-19z" fill="#B0805A"/>
<path transform="translate(483,22)" d="m0 0h15v1h-11l5 6v1h-5l-2-5-2-1z" fill="#956A4D"/>
<path transform="translate(865,689)" d="m0 0 3 1-11 5-7 3h-5l2-2z" fill="#A67755"/>
<path transform="translate(617,126)" d="m0 0 3 1 3 11 2 4-1 3-6-13z" fill="#A47553"/>
<path transform="translate(599,697)" d="m0 0 3 1-10 4-8 3h-4v-2z" fill="#9D7050"/>
<path transform="translate(248,723)" d="m0 0 9 2 8 3-2 2-6-1-3-1-1-2-5-2z" fill="#976B4D"/>
<path transform="translate(806,324)" d="m0 0v3l-1 2h-2l-2 5-4 6-5 3 2-4 7-9z" fill="#966A4D"/>
<path transform="translate(214,287)" d="m0 0 4 2 11 12-1 2-12-12v-2h-2z" fill="#B2815B"/>
<path transform="translate(123,645)" d="m0 0 10 3v2l8 2-4 1-14-5z" fill="#B5835C"/>
<path transform="translate(554,571)" d="m0 0 3 1-9 4-8 2h-6l4-2z" fill="#9B6E4F"/>
<path transform="translate(626,533)" d="m0 0h10l1 1v5l-3-4-8 1-9 1 3-2z" fill="#9C6F50"/>
<path transform="translate(233,88)" d="m0 0h1v18l-2 1-1-4 1-12z" fill="#B07F59"/>
<path transform="translate(624,780)" d="m0 0 1 2-8 4-10 2 4-3z" fill="#5E4435"/>
<path transform="translate(573,705)" d="m0 0h7l-3 2-8 3h-6l1-2z" fill="#9E7051"/>
<path transform="translate(263,69)" d="m0 0 5 1 2 2-4 1-3 5-2-4z" fill="#BE8B62"/>
<path transform="translate(561,731)" d="m0 0h6l2 2-7 1-4 1-2 4-2-1 5-6z" fill="#4D392E"/>
<path transform="translate(140,629)" d="m0 0 10 2 7 3-4 1-13-4z" fill="#A67754"/>
<path transform="translate(594,559)" d="m0 0 3 1-9 4h-8l3-2z" fill="#9E7151"/>
<path transform="translate(603,556)" d="m0 0h9l-4 2-9 3-3-1 1-2z" fill="#A87856"/>
<path transform="translate(770,548)" d="m0 0 8 1 5 1 1 3-7-1-7-2z" fill="#A17353"/>
<path transform="translate(182,265)" d="m0 0 11 1 2 3h-8l-5-2z" fill="#A67754"/>
<path transform="translate(133,649)" d="m0 0 6 1 12 4v1h-7l-3-1v-2l-6-1z" fill="#AC7C57"/>
<path transform="translate(239,721)" d="m0 0 9 1v2l6 2-3 1-12-4z" fill="#A37452"/>
<path transform="translate(230,718)" d="m0 0 9 1 6 2-4 1-8-1-3-1z" fill="#996D4E"/>
<path transform="translate(913,592)" d="m0 0h6l-2 2-9 3-4-1 2-2z" fill="#9E7051"/>
<path transform="translate(311,645)" d="m0 0h8l-3 2-13 3-3-1z" fill="#B1805A"/>
<path transform="translate(246,595)" d="m0 0 6 1 2 2-1 4-2 2h-6l6-3-1-3-4-2z" fill="#9B6E4F"/>
<path transform="translate(395,604)" d="m0 0h5v2l-10 3h-3v-2z" fill="#B3825B"/>
<path transform="translate(323,641)" d="m0 0 5 1-4 2-12 2 2-2z" fill="#AC7C57"/>
<path transform="translate(624,139)" d="m0 0 3 4 2 4v6l-3-4z" fill="#A97A57"/>
<path transform="translate(369,613)" d="m0 0 4 1-10 3h-8l4-2z" fill="#B07F59"/>
</svg>
